<svg width="32" height="33" viewBox="0 0 32 33" fill="none" xmlns="http://www.w3.org/2000/svg">
<path fill-rule="evenodd" clip-rule="evenodd" d="M8 3.5C7.67856 3.5 7.37671 3.65452 7.18876 3.91529C7.00081 4.17606 6.94967 4.51128 7.05132 4.81623L8.13962 8.08114C8.31295 8.60112 8.56606 9.078 8.88263 9.5H5C4.44772 9.5 4 9.94772 4 10.5V14.5C4 15.0523 4.44772 15.5 5 15.5H6V28.5C6 29.0523 6.44772 29.5 7 29.5H25C25.5523 29.5 26 29.0523 26 28.5V15.5H27C27.5523 15.5 28 15.0523 28 14.5V10.5C28 9.94772 27.5523 9.5 27 9.5H23.1174C23.4339 9.078 23.687 8.60113 23.8604 8.08115L24.9487 4.81623C25.0503 4.51128 24.9992 4.17606 24.8112 3.91529C24.6233 3.65452 24.3214 3.5 24 3.5H20C18.3644 3.5 16.9122 4.28534 16 5.4995C15.0878 4.28534 13.6356 3.5 12 3.5H8ZM17 11.5H26V13.5H17V11.5ZM15 11.5H6V13.5H15V11.5ZM15 15.5H8V27.5H15V15.5ZM17 27.5H24V15.5H17V27.5ZM15 8.48988C14.9945 6.83768 13.6535 5.5 12 5.5H9.38743L10.037 7.44868C10.4453 8.67371 11.5917 9.5 12.883 9.5H15L15 8.48988ZM21.963 7.44869C21.5547 8.67371 20.4082 9.5 19.117 9.5H17L17 8.48989C17.0054 6.83768 18.3465 5.5 20 5.5H22.6126L21.963 7.44869Z" fill="black"/>
</svg>
