<svg width="90" height="49" viewBox="0 0 90 49" fill="none" xmlns="http://www.w3.org/2000/svg">
<g clip-path="url(#clip0_550_2502)">
<path d="M45.2478 27.935H42.8495L43.2773 24.536L41.2393 20.6601L40.2991 27.935H37.9008L39.3477 16.4128H41.6334L43.8066 20.333L44.302 16.4128H46.7003L45.2534 27.935H45.2478ZM37.912 19.0078H34.2301L34.0161 20.7156H37.3659L36.482 23.3106H33.6952L33.4362 25.34H37.3659L36.482 27.935H30.717L32.1639 16.4128H37.6812L37.9177 19.0078H37.912ZM30.6663 19.0078H28.4143C28.1779 19.0078 28.0034 19.041 27.902 19.1076C27.795 19.1741 27.7388 19.2684 27.7219 19.3904C27.6993 19.5401 27.7219 19.6843 27.7894 19.8284C27.8119 19.8783 27.8851 20.0003 28.0146 20.1944L29.3939 22.5232C29.6642 22.9668 29.85 23.3217 29.9513 23.5934C30.1146 24.0092 30.199 24.4307 30.199 24.8632C30.199 25.0406 30.1934 25.1792 30.1765 25.2735C30.0864 25.95 29.8556 26.5266 29.484 26.9924C28.9773 27.6245 28.2736 27.935 27.3784 27.935H24.5916L24.3552 25.34H26.7648C27.0012 25.34 27.1758 25.3067 27.2827 25.2402C27.3897 25.1737 27.446 25.0794 27.4629 24.9574C27.4854 24.8077 27.4629 24.6635 27.3953 24.5194C27.3728 24.475 27.2996 24.3475 27.1701 24.1534L25.8358 21.8412C25.5093 21.2701 25.2954 20.8154 25.194 20.4827C25.0927 20.15 25.042 19.8118 25.042 19.4735V19.2906C25.0589 19.1963 25.0645 19.1242 25.0645 19.0799C25.1546 18.4034 25.3854 17.8267 25.757 17.361C26.2637 16.7288 26.9675 16.4183 27.8626 16.4183H30.4355L30.6719 19.0133L30.6663 19.0078ZM22.8407 27.935H20.4424L21.8893 16.4128H24.2876L22.8407 27.935ZM14.3339 27.935H11.9355L13.0109 19.3626H15.4092L14.3339 27.935ZM17.9033 16.4128C18.7703 16.4128 19.4121 16.6734 19.8287 17.1891C20.1721 17.6105 20.341 18.1705 20.341 18.8692C20.341 19.0466 20.3298 19.224 20.3072 19.3904C20.2115 20.1611 19.9244 20.8709 19.4571 21.5196C19.0743 22.0464 18.5563 22.5509 17.892 23.0278C18.1228 23.8762 18.4156 24.7245 18.7759 25.5784C19.0968 26.3492 19.4796 27.1366 19.93 27.935L17.7006 29.6816C17.132 28.6947 16.6196 27.558 16.1693 26.266C15.7583 25.1071 15.398 23.854 15.0939 22.501C15.5725 22.1074 16.051 21.7081 16.5408 21.3034C17.1601 20.7211 17.4979 20.1944 17.5598 19.7231C17.5993 19.4292 17.5148 19.2296 17.3121 19.1187C17.1714 19.041 16.9518 19.0078 16.6647 19.0078H12.6111L13.495 16.4128H17.9089H17.9033Z" fill="#F7F7F7"/>
<path d="M74.6134 33.8292H69.1918L68.8765 36.2524H73.8027L72.5022 39.9397H68.398L68.0208 42.8286H73.8027L72.5022 46.5159H64.0179L66.146 30.1419H74.27L74.6134 33.8292ZM62.0587 46.5159C59.7898 46.5159 58.1797 46.1056 56.6708 44.0928C53.5293 39.9009 54.3344 30.1419 61.2536 30.1419H64.0066L64.3501 33.8292C61.2367 33.8292 58.8046 33.2138 58.5512 37.4279C58.3598 40.5995 60.0657 42.8286 63.3648 42.8286L62.0643 46.5159H62.0587ZM45.518 46.5159H41.9936L43.5756 34.3283H47.1L45.518 46.5159ZM50.7763 30.1419C55.1789 30.1419 55.0213 34.7885 53.0677 37.3946C52.5103 38.1432 51.739 38.8584 50.7594 39.5405C51.4406 41.9525 52.4596 44.2758 53.7602 46.5159L50.4835 49C48.7214 46.039 47.4772 42.3573 46.6439 38.803C47.8656 37.8271 50.0782 36.3133 50.2696 34.855C50.4047 33.8348 49.4983 33.8348 48.7045 33.8348H42.9901L44.2906 30.1475H50.7819L50.7763 30.1419ZM37.957 36.4963C38.2159 34.6721 37.8781 33.6075 35.8795 33.6075C33.2166 33.6075 32.9463 35.7145 32.9463 38.2152C32.9463 42.1133 34.5058 45.3071 36.6396 40.8934C37.3208 39.485 37.7599 38.0156 37.957 36.4908V36.4963ZM29.4051 36.2967C29.9231 32.2212 32.0737 29.7815 36.375 29.7815C40.6762 29.7815 42.1794 32.382 41.6615 36.2967C41.1322 40.3167 38.5031 46.8819 34.1511 46.8819C29.7992 46.8819 28.9378 40.1338 29.4051 36.2967ZM29.3207 33.8292H24.051L23.7245 36.4575H28.4874L27.17 40.1449H23.2347C23.0714 41.4202 22.4409 45.174 22.6267 46.5159L19.1023 49C18.7645 47.7746 18.8715 46.649 19.0348 45.3903L21.0109 30.1419H28.9829L29.3263 33.8292H29.3207Z" fill="#F7F7F7"/>
<path fill-rule="evenodd" clip-rule="evenodd" d="M2.09422 12.7865C3.16953 11.0953 4.75154 9.33203 6.8515 7.86264C8.9571 6.39325 11.5806 5.21774 14.3675 4.45255C17.1543 3.68736 20.11 3.33803 23.1839 3.24931C26.2579 3.1606 29.45 3.33803 31.9272 3.57092C34.4044 3.8038 36.1609 4.09768 36.1609 3.95351C36.1609 3.80935 34.3987 3.22159 32.6084 2.73364C30.8181 2.25124 28.9996 1.86864 26.7589 1.60249C24.5238 1.33633 21.8665 1.19217 20.3464 1.07573C18.8264 0.959284 18.4379 0.870566 18.466 0.720854C18.4942 0.576688 18.9446 0.365983 20.8081 0.177457C22.6716 -0.0110682 25.9538 -0.188504 30.5929 0.399252C35.232 0.987008 41.2278 2.33996 47.5671 4.48582C53.9064 6.63168 60.5891 9.57046 66.2585 12.4926C71.9278 15.4148 76.5781 18.3258 79.3424 20.2055C82.1011 22.0852 82.9681 22.9391 82.8048 23.1277C82.6416 23.3162 81.448 22.8504 78.436 21.4531C75.424 20.0558 70.5879 17.7381 64.9073 15.5312C59.2267 13.3299 52.6904 11.2395 46.7395 9.6869C40.7887 8.1288 35.4177 7.103 30.0637 6.73149C24.7096 6.36553 19.3668 6.65941 15.2795 7.46341C11.1922 8.27296 8.36032 9.59264 6.29977 11.0454C4.23922 12.4982 2.96123 14.084 2.03229 15.4536C1.10898 16.8176 0.540358 17.9654 0.241972 18.3036C-0.0564143 18.6419 -0.084564 18.1706 0.180043 17.1281C0.450279 16.0857 1.01327 14.4666 2.08859 12.7809" fill="#F7F7F7"/>
<path fill-rule="evenodd" clip-rule="evenodd" d="M4.88104 19.3516C5.37085 17.8545 6.2097 16.5015 7.50459 15.1652C8.8051 13.8289 10.5616 12.5037 12.6503 11.5666C14.739 10.624 17.1543 10.0695 20.2564 9.81997C23.3585 9.57045 27.1474 9.63144 31.3811 10.0695C35.6148 10.5075 40.2989 11.3337 45.1913 12.5203C50.0837 13.7125 55.1844 15.265 60.4203 17.2057C65.6561 19.1464 71.027 21.4642 75.3339 23.2885C79.6465 25.1127 82.8949 26.4324 84.7584 27.1255C86.6219 27.8131 87.1005 27.8741 87.3707 27.5525C87.641 27.2309 87.6973 26.5267 87.4439 25.3789C87.1906 24.2311 86.6219 22.6452 85.9238 21.0428C85.2201 19.4403 84.3869 17.8268 83.8351 16.7677C83.2834 15.7086 83.0132 15.2096 83.092 15.1652C83.1652 15.1209 83.5818 15.5312 84.4038 16.5293C85.2257 17.5273 86.4474 19.1132 87.5227 21.0539C88.5981 22.9946 89.5214 25.2846 89.8479 27.0479C90.1744 28.8111 89.9098 30.0476 89.223 30.6465C88.5361 31.2509 87.4327 31.2176 85.8506 30.7075C84.2686 30.1918 82.2137 29.1937 78.543 27.5358C74.8723 25.8779 69.5914 23.5546 64.029 21.3533C58.4667 19.152 52.6172 17.0616 47.1449 15.6532C41.6726 14.2448 36.5719 13.5073 31.4261 13.0803C26.2804 12.6534 21.0896 12.537 17.3007 13.1524C13.5117 13.7679 11.1246 15.1209 9.39624 16.5293C7.66786 17.9377 6.59254 19.407 5.81561 20.6879C5.03868 21.9688 4.56014 23.0556 4.39687 22.7728C4.2336 22.4955 4.37998 20.8487 4.87541 19.3516" fill="#F7F7F7"/>
</g>
<defs>
<clipPath id="clip0_550_2502">
<rect width="90" height="49" fill="white"/>
</clipPath>
</defs>
</svg>
