<svg width="32" height="32" viewBox="0 0 32 32" fill="none" xmlns="http://www.w3.org/2000/svg">
<path fill-rule="evenodd" clip-rule="evenodd" d="M19 17C18.4477 17 18 17.4477 18 18V22C18 22.5523 18.4477 23 19 23H23C23.5523 23 24 22.5523 24 22V18C24 17.4477 23.5523 17 23 17H19ZM20 21V19H22V21H20Z" fill="black"/>
<path fill-rule="evenodd" clip-rule="evenodd" d="M4.7929 4.79289C5.94088 3.64492 7.49786 3 9.12133 3H22.8787C24.5022 3 26.0591 3.64492 27.2071 4.79289C28.3551 5.94086 29 7.49784 29 9.12132V10L29 10.0032C28.9992 11.0164 28.6217 11.9414 28 12.6458V26C28 27.6569 26.6569 29 25 29H7C5.34315 29 4 27.6569 4 26V12.6458C3.37764 11.9407 3 11.0144 3 10V9.12133C3 7.49785 3.64493 5.94086 4.7929 4.79289ZM25 27H16V18C16 17.4477 15.5523 17 15 17H9C8.44772 17 8 17.4477 8 18V27H7C6.44772 27 6 26.5523 6 26V13.874C6.31962 13.9562 6.6547 14 7 14C8.19469 14 9.26706 13.4762 10 12.6458C10.7329 13.4762 11.8053 14 13 14C14.1947 14 15.2671 13.4762 16 12.6458C16.7329 13.4762 17.8053 14 19 14C20.1947 14 21.2671 13.4762 22 12.6458C22.7329 13.4762 23.8053 14 25 14C25.3453 14 25.6804 13.9562 26 13.874V26C26 26.5523 25.5523 27 25 27ZM14 27H10V19H14V27ZM27 9.12132V10C27 11.1046 26.1046 12 25 12C23.8954 12 23 11.1046 23 10C23 9.44772 22.5523 9 22 9C21.4477 9 21 9.44772 21 10C21 11.1046 20.1046 12 19 12C17.8954 12 17 11.1046 17 10C17 9.44772 16.5523 9 16 9C15.4477 9 15 9.44772 15 10C15 11.1046 14.1046 12 13 12C11.8954 12 11 11.1046 11 10C11 9.44772 10.5523 9 10 9C9.44772 9 9 9.44772 9 10C9 11.1046 8.10457 12 7 12C5.89543 12 5 11.1046 5 10V9.12133C5 8.02828 5.43421 6.98 6.20712 6.2071C6.98001 5.43421 8.02829 5 9.12133 5H22.8787C23.9717 5 25.02 5.43421 25.7929 6.20711C26.5658 6.98 27 8.02828 27 9.12132Z" fill="black"/>
</svg>
