<svg width="21" height="23" viewBox="0 0 21 23" fill="none" xmlns="http://www.w3.org/2000/svg">
<g clip-path="url(#clip0_528_366)">
<path d="M15.6353 22.9965C15.243 22.9593 14.855 22.8926 14.4752 22.7755C14.1737 22.6824 13.8667 22.6062 13.5712 22.4945C13.2347 22.3671 12.9086 22.208 12.5775 22.0633C12.1567 21.8795 11.7556 21.6519 11.3573 21.4171C10.7439 21.0562 10.1485 20.6628 9.57831 20.2244C9.17557 19.9146 8.769 19.6095 8.38158 19.2786C7.9564 18.9153 7.54272 18.5345 7.13778 18.1442C6.72519 17.7472 6.32136 17.3382 5.92901 16.9179C5.55801 16.5209 5.20123 16.1071 4.84774 15.691C4.58618 15.3841 4.33173 15.0694 4.08768 14.7451C3.78836 14.3482 3.49834 13.9422 3.21325 13.532C2.82528 12.9735 2.46467 12.3946 2.12486 11.7995C1.7938 11.2206 1.48573 10.6272 1.20994 10.0147C0.953299 9.44477 0.722379 8.86345 0.533047 8.26171C0.380924 7.77768 0.252879 7.28764 0.160402 6.78559C0.0487723 6.18746 -0.0190808 5.58392 0.0049961 4.97257C0.0285258 4.37023 0.123739 3.7811 0.336601 3.2226C0.506781 2.7752 0.727304 2.35963 1.04578 2.01432C1.37027 1.6624 1.69257 1.30809 2.01761 0.957372C2.20092 0.759795 2.38752 0.565822 2.57575 0.37365C2.88383 0.0583672 3.25319 -0.0401211 3.66414 0.0145279C3.99684 0.0583672 4.25293 0.25114 4.48276 0.505167C5.02339 1.1027 5.56895 1.69423 6.11178 2.28937C6.56815 2.78961 7.02287 3.29226 7.4776 3.79371C7.59743 3.92583 7.72165 4.05375 7.83437 4.19307C8.25244 4.71013 8.26174 5.51185 7.86885 6.02952C7.73588 6.20487 7.58321 6.36281 7.4371 6.52616C7.20564 6.78499 6.96159 7.03121 6.74216 7.30145C6.48169 7.62274 6.33175 8.00468 6.28141 8.43707C6.24967 8.70852 6.26937 8.97215 6.31589 9.23699C6.35693 9.47 6.4494 9.68139 6.55447 9.88497C6.70002 10.1672 6.8423 10.4525 7.00591 10.7227C7.25324 11.1317 7.50715 11.5376 7.77692 11.9292C8.21304 12.5628 8.70661 13.1417 9.23631 13.6822C9.63467 14.0887 10.0544 14.4683 10.496 14.8166C10.9343 15.1619 11.3868 15.4838 11.8607 15.7678C12.0555 15.8849 12.2454 16.0129 12.4621 16.0753C12.7203 16.1498 12.9803 16.2146 13.25 16.1546C13.3863 16.124 13.5258 16.1053 13.6599 16.0651C14.0052 15.9606 14.2848 15.7354 14.5349 15.4634C14.7937 15.1811 15.052 14.8983 15.307 14.6112C15.4575 14.4412 15.6238 14.3025 15.8235 14.2058C15.9975 14.1218 16.1776 14.0995 16.3609 14.1019C16.7341 14.1061 17.04 14.2791 17.3004 14.5668C17.8816 15.2075 18.4654 15.8447 19.0482 16.4843C19.5139 16.9947 19.9784 17.5064 20.4436 18.0175C20.5388 18.1225 20.6433 18.2198 20.7248 18.3363C20.8501 18.5147 20.9536 18.7087 20.9787 18.9405C20.9809 18.9585 20.9924 18.9753 20.9995 18.9927V19.4822C20.9919 19.5044 20.9809 19.526 20.9776 19.5494C20.9388 19.8131 20.8255 20.0359 20.6586 20.225C20.1508 20.8009 19.6447 21.3793 19.127 21.9444C18.9803 22.1047 18.8041 22.2368 18.6279 22.3581C18.3587 22.5431 18.0698 22.683 17.765 22.7899C17.4635 22.8962 17.1576 22.9635 16.8441 22.9983C16.7976 23.0037 15.6785 23.0025 15.6353 22.9983V22.9965Z" fill="black"/>
</g>
<defs>
<clipPath id="clip0_528_366">
<rect width="21" height="23" fill="white"/>
</clipPath>
</defs>
</svg>
